PathFileType	3	(X/Y/Z)	D:\Jess\Healthy\Labelled\HA23\20251031\SRRun01.trc
DataRate	CameraRate	NumFrames	NumMarkers	Units	OrigDataRate	OrigDataStartFrame	OrigNumFrames
250.0	250.0	4	37	mm	250.0	36563	2501
Frame#	Time	C7			T10			CLAV			LSHO			RSHO			LASIS			RASIS			LPSIS			RPSIS			LILCR			RILCR			LGTR			LTHI			LLTHI			LLEP			LMEP			LPSH			LLSH			LDSH			LLMAL			LMMAL			LTOE			L5TH			LHEE			RGTR			RTHI			RLTHI			RLEP			RMEP			RPSH			RLSH			RDSH			RLMAL			RMMAL			RTOE			R5TH			RHEE			
		X1	Y1	Z1	X2	Y2	Z2	X3	Y3	Z3	X4	Y4	Z4	X5	Y5	Z5	X6	Y6	Z6	X7	Y7	Z7	X8	Y8	Z8	X9	Y9	Z9	X10	Y10	Z10	X11	Y11	Z11	X12	Y12	Z12	X13	Y13	Z13	X14	Y14	Z14	X15	Y15	Z15	X16	Y16	Z16	X17	Y17	Z17	X18	Y18	Z18	X19	Y19	Z19	X20	Y20	Z20	X21	Y21	Z21	X22	Y22	Z22	X23	Y23	Z23	X24	Y24	Z24	X25	Y25	Z25	X26	Y26	Z26	X27	Y27	Z27	X28	Y28	Z28	X29	Y29	Z29	X30	Y30	Z30	X31	Y31	Z31	X32	Y32	Z32	X33	Y33	Z33	X34	Y34	Z34	X35	Y35	Z35	X36	Y36	Z36	X37	Y37	Z37	

1564	146.248	906.7858423416692	1423.687788618596	-1139.265357154224	868.0359479380619	1200.550628152271	-1087.62673480116	941.2054664011307	1337.878273710474	-1270.367122698409	773.986983194195	1429.267186421512	-1222.176709146839	1061.161798762253	1391.794319946292	-1151.981641144416	752.3353501103196	950.1585137045182	-1241.144392487466	1011.427327668561	958.6072473417038	-1222.646918807607	873.2666806204572	987.7054669554301	-1044.658607673156	905.4121328439745	985.5991678968261	-1043.379350322164	724.4658610580647	1023.75538147526	-1191.42858046048	1056.489471539822	1020.214244395036	-1161.53482324586	692.3943034076134	866.9541288472514	-1146.531951030534	794.3980655020814	672.4798753238113	-1253.335420389989	732.7418083724048	602.7200109874735	-1136.117952842015	751.8917898386848	476.7611472390597	-1089.020935437424	nan	nan	nan	805.2719809258858	388.3747959497294	-1061.679102386533	752.3599138362579	415.4739568996508	-915.9231026339562	800.6373653661383	328.7953179894275	-879.3851398418452	776.9044233447477	325.0027748318762	-733.4999817784535	nan	nan	nan	809.3324651731714	178.6786244808891	-705.1451507203869	769.3648012870196	201.4467128311029	-667.8442553110414	817.6873945957684	387.0169251574619	-693.3657565025375	1076.680792049327	876.5735879839474	-1202.860287457888	969.6516573478626	733.272782289789	-1321.399835662658	1036.063814974489	624.9341281925364	-1253.978132592344	1000.618592372779	479.2673827944259	-1283.608033623302	nan	nan	nan	945.4541781083479	419.6598734836982	-1326.699396383297	1003.217741558684	307.8057271673437	-1261.161903890067	931.1733144857403	231.6140026748546	-1303.478890440752	964.6910957921879	94.04044516549331	-1258.524678570182	nan	nan	nan	932.5425224398139	71.44414301537802	-1397.727318258739	977.3667171947017	39.06457726837608	-1373.450826571924	927.47753595323	58.74872204597971	-1185.329494550324	
1565	146.252	907.5548930669007	1421.119767761694	-1139.045395909216	869.2072819305948	1197.314116582415	-1086.865742979422	940.7754833155448	1334.206590485403	-1270.503009368581	773.5485015396669	1426.320264084516	-1220.973755095794	1062.378956018705	1388.793612634093	-1152.695209688307	752.5945386164752	946.1747460169555	-1240.820421808572	1012.416401887147	955.7103033226776	-1221.280857702179	872.4126245170806	983.4237907712027	-1043.134804663847	904.5200659369356	981.7285898511966	-1041.862247072026	723.840478234688	1019.062020245111	-1190.548708760145	1056.499375158904	1016.93559383291	-1159.725635695649	692.6685247850256	862.0570584679969	-1147.369165806758	793.6787007238462	669.7380617644682	-1255.525950560325	731.4267936377705	598.8186869223637	-1139.792443052366	749.9885112362358	473.4743112206856	-1094.506751823168	nan	nan	nan	802.7886330215756	385.3980743894161	-1067.182585606214	750.7461646216958	415.5762898390599	-921.6181805235137	798.894403647416	329.4788382984308	-883.652013599613	775.8715929373016	328.8371651842971	-737.7332835684992	nan	nan	nan	806.9687756067424	182.7035719812581	-707.5083297034561	767.3105070830064	206.3575323372367	-670.4177417163207	817.4576893621302	391.0581781484668	-698.5305949956735	1077.257609324437	874.6289721234516	-1201.190255722177	970.7958710185999	732.2457474977508	-1321.553170441348	1036.264220765503	623.4865990903285	-1253.364349588518	1000.251276076543	477.9659171450273	-1283.739279802006	nan	nan	nan	944.6434398103537	417.9640077636889	-1325.903733500606	1002.641625684933	306.9969042588612	-1258.59129301221	929.9426276030766	230.1294572712757	-1298.40998832349	963.7766193308421	93.82772731640702	-1249.9752702724	nan	nan	nan	931.8258367367	69.22175553831958	-1388.837100731655	977.1947641859038	37.87714911922529	-1363.9657525767	926.9008829680325	59.58157459638941	-1175.91080615393	
1566	146.256	908.3190768479276	1418.648982160749	-1138.887535882928	870.3457161031628	1194.144668436655	-1086.075740062864	940.3086080133246	1330.500253253738	-1270.654447648684	773.1123580837732	1423.406883803973	-1219.760981517053	1063.594640459403	1385.810828334456	-1153.414919886159	752.9128297883713	942.082704922205	-1240.433584888284	1013.481291181765	952.9300625412707	-1219.829388697112	871.3871664668275	979.3107278679815	-1041.626811805963	903.4472413068472	978.0589782841225	-1040.328364169547	723.2135986527668	1014.241268749468	-1189.685254410405	1056.473731393885	1013.867924088836	-1157.743268256676	692.9208465356041	857.175748242231	-1148.234906500845	792.9745242928033	667.1249972397892	-1257.711222007284	730.0953680278443	595.0763915610415	-1143.440219985926	748.0785438371133	470.3482888956258	-1100.072938885348	nan	nan	nan	800.3332393730841	382.549793268774	-1072.88625067934	749.1364856340713	415.5736443031699	-927.549913966564	797.1910748175951	330.0803333036484	-888.24872856771	774.8729089168138	332.4314504077943	-742.3602854888908	nan	nan	nan	804.6715597059747	186.4795635170689	-710.4042217643589	765.3077029786731	210.9635225013972	-673.5259860855556	817.2249293423173	394.8172536775419	-704.0113507297503	1077.882448346689	872.8385182791053	-1199.289074412882	972.0621377899197	731.3214516477418	-1321.533258825091	1036.548145952228	622.1207852304083	-1252.683851320964	999.8900623230676	476.8086866929697	-1283.940622791906	nan	nan	nan	943.8007675126487	416.4700627762351	-1325.074023878509	1002.095960580661	306.3746607195991	-1256.056800219319	928.7591656655068	228.8665731807837	-1293.238307151656	962.8999976881872	93.82617995295352	-1241.353852919167	nan	nan	nan	931.1852448807164	67.39023849646502	-1379.82204540024	977.0581094387035	37.01825264819827	-1354.407824793959	926.3596682076586	60.47071258831269	-1166.468495532549	
1567	146.26	909.0830548805943	1416.289560090154	-1138.796821127467	871.4452052647296	1191.072066062609	-1085.251973286698	939.8059687110533	1326.775193525754	-1270.817609769424	772.6929590615965	1420.542186932541	-1218.542933664616	1064.801101401357	1382.860879403262	-1154.148962759396	753.2872794882803	937.9143900712032	-1239.981873513377	1014.611145100619	950.2817417352173	-1218.301906529837	870.1994524696545	975.4022470780237	-1040.150623065965	902.2051380437479	974.6159993325183	-1038.790635835384	722.5943836045383	1009.343452282391	-1188.834142443991	1056.412534730891	1011.034759399347	-1155.599352053267	693.1489449181811	852.358092748226	-1149.116229700631	792.2993025713396	664.6758126312843	-1259.902569674374	728.7554889894159	591.5127326316598	-1147.071225554148	746.1742407956709	467.3937491247466	-1105.736474025064	nan	nan	nan	797.9286379245282	379.8447599367273	-1078.794187350386	747.5373415319621	415.4695383931412	-933.7116900225918	795.5362373343528	330.5998921364272	-893.1698795073015	773.9078944053301	335.7677946954204	-747.361912369308	nan	nan	nan	802.4553112349184	189.9835162589094	-713.8364350913705	763.3631727166501	215.2299679315448	-677.1706699689319	816.9742905436354	398.2783757938246	-709.7722768114169	1078.550055654322	871.1870745993489	-1197.16007487717	973.4299687832329	730.4877817058242	-1321.3185923016	1036.901656046691	620.813874943578	-1251.917434089255	999.5480922511441	475.7599256485	-1284.153063924132	nan	nan	nan	942.9512803372388	415.1412613224028	-1324.161298724919	1001.593233545588	305.9004908656291	-1253.507908074159	927.6477055149611	227.793020814419	-1287.948308177224	962.0782755244469	94.00212399992515	-1232.67122423188	nan	nan	nan	930.6259036951126	65.91648835382689	-1370.698561311217	976.9559148134338	36.44404093550911	-1344.794210760881	925.8640610322174	61.39299396937083	-1157.014017680292	
